Coordinates
version=1
nRows=7
nColumns=63
inDegrees=yes

Units are S.I. units (second, meters, Newtons, ...)
If the header above contains a line with 'inDegrees', this indicates whether rotational values are in degrees (yes) or radians (no).

endheader
time	pelvis_tilt	pelvis_list	pelvis_rotation	pelvis_tx	pelvis_ty	pelvis_tz	hip_flexion_r	hip_adduction_r	hip_rotation_r	knee_angle_r	knee_angle_r_beta	ankle_angle_r	subtalar_angle_r	mtp_angle_r	hip_flexion_l	hip_adduction_l	hip_rotation_l	knee_angle_l	knee_angle_l_beta	ankle_angle_l	subtalar_angle_l	mtp_angle_l	L5_S1_Flex_Ext	L5_S1_Lat_Bending	L5_S1_axial_rotation	L4_L5_Flex_Ext	L4_L5_Lat_Bending	L4_L5_axial_rotation	L3_L4_Flex_Ext	L3_L4_Lat_Bending	L3_L4_axial_rotation	L2_L3_Flex_Ext	L2_L3_Lat_Bending	L2_L3_axial_rotation	L1_L2_Flex_Ext	L1_L2_Lat_Bending	L1_L2_axial_rotation	L1_T12_Flex_Ext	L1_T12_Lat_Bending	L1_T12_axial_rotation	Abs_r3	Abs_r2	Abs_r1	Abs_t1	Abs_t2	neck_flexion	neck_bending	neck_rotation	arm_flex_r	arm_add_r	arm_rot_r	elbow_flex_r	pro_sup_r	wrist_flex_r	wrist_dev_r	arm_flex_l	arm_add_l	arm_rot_l	elbow_flex_l	pro_sup_l	wrist_flex_l	wrist_dev_l
      0.00000000	     -6.94869439	     -4.50893656	     92.98230897	      0.23365365	      0.99766240	      0.46676053	      0.75504221	     -6.84569952	     -6.13247670	      6.46471269	      0.11283052	     23.14654787	      7.47377074	      0.00000000	     -0.41142327	      6.77788485	     -8.56148902	      0.60015604	      0.01047470	     20.96601722	      9.04320535	      0.00000000	      0.02573575	      6.99391969	     63.93889908	      0.04779386	      9.30191318	     67.93508027	      0.04228126	     17.00501633	     67.93508027	      0.02941339	     17.00501633	     55.94653669	      0.02389822	     14.26200103	     51.95035550	      0.01470541	     10.83358160	     47.95417431	      0.18382788	     79.11661829	    355.60897501	      0.00000000	      0.00000000	     23.49707534	      6.54084107	     -9.18575944	      2.92343912	    -24.66576394	     58.45954425	     15.56877636	     16.83810542	    -14.30904785	     -1.78101918	     -3.34020601	    -40.30100004	    126.45249949	     11.68660132	      9.01336461	     -5.50894861	      8.58072566
      0.02127660	     -6.22829706	     -4.32938602	     94.15741964	      0.23258879	      0.99821452	      0.47099026	      0.66528457	     -6.22222162	     -9.24275013	      6.91586790	      0.12070467	     23.20515012	      9.15794606	      0.00000000	     -0.18311805	      6.01395694	     -8.00492273	      0.68308892	      0.01192215	     20.56479720	      8.65382612	      0.00000000	      0.01929058	      5.52982945	     64.16400442	      0.03582454	      7.35467317	     68.17425469	      0.03169250	     13.44522733	     68.17425469	      0.02204720	     13.44522733	     56.14350387	      0.01791323	     11.27642822	     52.13325359	      0.01102264	      8.56570582	     48.12300331	      0.13779069	     62.55453673	    356.86094337	      0.00000000	      0.00000000	     24.45426864	      5.75824700	     -3.89221983	      6.04666598	    -24.44546023	     59.69289240	     15.10435986	     18.71167614	    -13.42792088	     -4.27451743	      0.19921353	    -38.95856411	    121.89829261	     12.67754608	      7.60458329	     -6.39883105	      3.02540736
      0.04255319	     -5.75346306	     -4.35210624	     94.98020856	      0.23212297	      0.99842132	      0.47516760	      0.94484187	     -5.88280085	    -11.92404474	      7.49661381	      0.13084059	     22.99031849	     10.62890490	      0.00000000	      0.25076318	      5.52028244	     -7.19946954	      0.78559667	      0.01371125	     20.02946942	      7.93937704	      0.00000000	      0.01782145	      4.70704793	     64.16918909	      0.03309622	      6.26037374	     68.17976341	      0.02927887	     11.44471633	     68.17976341	      0.02036814	     11.44471633	     56.14804046	      0.01654900	      9.59861213	     52.13746614	      0.01018318	      7.29121724	     48.12689182	      0.12729686	     53.24706755	    356.88977897	      0.00000000	      0.00000000	     25.04551422	      5.37964487	     -0.74690191	      8.53015238	    -23.89855390	     61.48138811	     14.90429255	     20.42637184	    -12.87817703	     -5.45018751	      2.44989598	    -37.66197176	    118.24177420	     12.79803300	      8.34021661	     -5.92238512	     -1.18827351
      0.06382979	     -5.74633448	     -4.65412478	     95.29105432	      0.23272904	      0.99836445	      0.47921862	      1.68209043	     -5.98910582	    -12.88615077	      8.22445021	      0.14354374	     22.57504556	     10.44893295	      0.00000000	      0.93834832	      5.50763419	     -7.05513052	      0.93206888	      0.01626767	     19.45318954	      7.86650149	      0.00000000	      0.03083622	      4.63825448	     64.06753002	      0.05726594	      6.16887846	     68.07175065	      0.05066082	     11.27745195	     68.07175065	      0.03524271	     11.27745195	     56.05908877	      0.02863451	      9.45832854	     52.05486814	      0.01761982	      7.18465619	     48.05064752	      0.22026003	     52.46886235	    356.32438174	      0.00000000	      0.00000000	     25.21575912	      5.07715026	     -0.13638522	     10.06976179	    -23.01335853	     63.09851795	     15.12724310	     22.31973514	    -12.72461695	     -5.66080619	      4.28524312	    -36.66206078	    117.97743665	     12.76440359	      9.09887318	     -4.57052385	     -3.28130570
      0.08510638	     -5.46613854	     -4.76135324	     95.98259488	      0.23249076	      0.99790972	      0.48266639	      1.99275083	     -5.86978593	    -15.43576021	      8.65151479	      0.15099742	     22.15652119	     11.86705556	      0.00000000	      1.39579794	      5.22859918	     -5.90179322	      1.09900778	      0.01918130	     19.11046225	      7.12649748	      0.00000000	      0.02489226	      4.38091184	     63.90511003	      0.04622742	      5.82661275	     67.89917941	      0.04089550	     10.65174905	     67.89917941	      0.02844937	     10.65174905	     55.91697128	      0.02311495	      8.93355543	     51.92290190	      0.01422344	      6.78603244	     47.92883253	      0.17780294	     49.55775094	    355.42105048	      0.00000000	      0.00000000	     25.40593170	      5.44746338	      0.23799310	     11.95440874	    -22.06620336	     65.20048008	     15.21833963	     24.73315298	    -12.24071830	     -4.42119909	      5.05943901	    -34.90699750	    117.01003625	     11.11025849	     12.07782267	     -1.31645500	     -3.08733812
      0.10638298	     -5.40096931	     -4.97975016	     96.13105931	      0.23291615	      0.99729710	      0.48603453	      2.64723011	     -5.95738878	    -16.43471919	      9.32703337	      0.16278744	     21.69768585	     12.01520328	      0.00000000	      1.96146762	      5.16846022	     -5.47666516	      1.31133556	      0.02288712	     18.87705887	      6.79580056	      0.00000000	      0.02349908	      4.42401843	     63.77565719	      0.04364014	      5.88394451	     67.76163577	      0.03860664	     10.75655840	     67.76163577	      0.02685710	     10.75655840	     55.80370004	      0.02182125	      9.02145838	     51.81772147	      0.01342737	      6.85280454	     47.83174289	      0.16785158	     50.04538125	    354.70107260	      0.00000000	      0.00000000	     25.48014759	      5.36055945	     -0.73815433	     13.53248348	    -21.01339527	     67.69798260	     15.50145838	     27.52248306	    -12.20330424	     -2.67660470	      5.89932530	    -33.39516960	    117.79761633	     10.38826518	     14.40968339	     -0.00699469	     -1.87116905
      0.12765957	     -5.44645395	     -5.23929371	     96.34990820	      0.23303931	      0.99678586	      0.48890014	      3.23543129	     -6.22277534	    -18.06206467	      9.93085490	      0.17332612	     21.41639306	     12.98322070	      0.00000000	      2.52183496	      5.24224132	     -5.03640033	      1.52987246	      0.02670131	     18.58732747	      6.33806103	      0.00000000	      0.02628876	      4.56434553	     63.63542912	      0.04882086	      6.07057956	     67.61264344	      0.04318980	     11.09774973	     67.61264344	      0.03004542	     11.09774973	     55.68100048	      0.02441174	      9.30761341	     51.70378616	      0.01502140	      7.07017123	     47.72657184	      0.18777799	     51.63278952	    353.92116612	      0.00000000	      0.00000000	     25.57632316	      5.56734410	     -1.65244561	     14.85546857	    -19.98277633	     70.33103194	     15.72464555	     30.80627224	    -11.91553276	     -1.52060312	      6.69541662	    -31.60013881	    119.50254560	      8.89999552	     18.41841879	      2.16235641	     -0.33463172
